C:\Users\nbianco\repos\ankle-perturb-sim\results\experiments\subject19\walk2\expdata\ground_reaction_unfiltered.mot
version=1
nRows=55
nColumns=19
inDegrees=no
endheader
time	ground_force_r_vx	ground_force_r_vy	ground_force_r_vz	ground_force_r_px	ground_force_r_py	ground_force_r_pz	ground_force_l_vx	ground_force_l_vy	ground_force_l_vz	ground_force_l_px	ground_force_l_py	ground_force_l_pz	ground_torque_r_x	ground_torque_r_y	ground_torque_r_z	ground_torque_l_x	ground_torque_l_y	ground_torque_l_z
1.408333	0.000000	0.000002	-0.000000	0.000000	0.000000	-0.000000	-47.600309	554.331506	34.701240	1.011189	0.000000	-0.558455	0.000000	0.000000	0.000000	0.000000	0.577069	0.000000
1.409375	0.000000	0.000001	-0.000000	0.000000	0.000000	-0.000000	-47.139784	552.197084	34.583863	1.010404	0.000000	-0.558571	0.000000	0.000000	0.000000	0.000000	0.532392	0.000000
1.410417	0.000000	0.000001	-0.000000	0.000000	0.000000	-0.000000	-46.682312	550.104405	34.467276	1.009623	0.000000	-0.558684	0.000000	0.000000	0.000000	0.000000	0.488890	0.000000
1.411458	-0.000000	0.000001	-0.000000	0.000000	0.000000	-0.000000	-46.228575	548.054129	34.352815	1.008846	0.000000	-0.558796	0.000000	0.000000	0.000000	0.000000	0.446790	0.000000
1.412500	-0.000000	0.000001	-0.000000	0.000000	0.000000	-0.000000	-45.779304	546.046997	34.241785	1.008073	0.000000	-0.558905	0.000000	0.000000	0.000000	0.000000	0.406305	0.000000
1.413542	-0.000000	0.000000	-0.000000	0.000000	0.000000	-0.000000	-45.335260	544.083786	34.135409	1.007304	0.000000	-0.559012	0.000000	0.000000	0.000000	0.000000	0.367632	0.000000
1.414583	-0.000000	0.000000	-0.000000	0.000000	0.000000	-0.000000	-44.897198	542.165268	34.034781	1.006539	0.000000	-0.559118	0.000000	0.000000	0.000000	0.000000	0.330951	0.000000
1.415625	-0.000000	-0.000000	0.000000	-0.000000	-0.000000	0.000000	-44.465835	540.292157	33.940819	1.005779	0.000000	-0.559222	0.000000	0.000000	0.000000	0.000000	0.296418	0.000000
1.416667	-0.000000	-0.000000	0.000000	-0.000000	-0.000000	0.000000	-44.041822	538.465066	33.854233	1.005021	0.000000	-0.559326	0.000000	0.000000	0.000000	0.000000	0.264174	0.000000
1.417708	-0.000000	-0.000000	0.000000	-0.000000	-0.000000	0.000000	-43.625705	536.684461	33.775490	1.004267	0.000000	-0.559428	0.000000	0.000000	0.000000	0.000000	0.234333	0.000000
1.418750	-0.000000	-0.000000	0.000000	-0.000000	-0.000000	0.000000	-43.217899	534.950620	33.704795	1.003514	0.000000	-0.559529	0.000000	0.000000	0.000000	0.000000	0.206991	0.000000
1.419792	-0.000000	-0.000000	0.000000	-0.000000	-0.000000	0.000000	-42.818658	533.263604	33.642080	1.002764	0.000000	-0.559630	0.000000	0.000000	0.000000	0.000000	0.182218	0.000000
1.420833	-0.000000	-0.000000	0.000000	-0.000000	-0.000000	0.000000	-42.428061	531.623235	33.587000	1.002013	0.000000	-0.559730	0.000000	0.000000	0.000000	0.000000	0.160063	0.000000
1.421875	-0.000000	-0.000000	0.000000	-0.000000	-0.000000	0.000000	-42.045993	530.029083	33.538942	1.001262	0.000000	-0.559829	0.000000	0.000000	0.000000	0.000000	0.140552	0.000000
1.422917	0.000000	-0.000000	0.000000	-0.000000	-0.000000	0.000000	-41.672142	528.480468	33.497048	1.000509	0.000000	-0.559928	0.000000	0.000000	0.000000	0.000000	0.123689	0.000000
1.423958	0.000000	-0.000000	0.000000	-0.000000	-0.000000	0.000000	-41.305999	526.976466	33.460236	0.999753	0.000000	-0.560027	0.000000	0.000000	0.000000	0.000000	0.109457	0.000000
1.425000	0.000000	-0.000000	0.000000	-0.000000	-0.000000	0.000000	-40.946875	525.515939	33.427248	0.998992	0.000000	-0.560125	0.000000	0.000000	0.000000	0.000000	0.097817	0.000000
1.426042	0.000000	0.000000	0.000000	0.000000	0.000000	-0.000000	-40.593915	524.097555	33.396682	0.998227	0.000000	-0.560222	0.000000	0.000000	0.000000	0.000000	0.088712	0.000000
1.427083	0.000000	0.000000	-0.000000	0.000000	0.000000	-0.000000	-40.246130	522.719836	33.367054	0.997455	0.000000	-0.560319	0.000000	0.000000	0.000000	0.000000	0.082066	0.000000
1.428125	0.000000	0.000000	-0.000000	0.000000	0.000000	-0.000000	-39.902428	521.381200	33.336844	0.996676	0.000000	-0.560414	0.000000	0.000000	0.000000	0.000000	0.077786	0.000000
1.429167	0.000000	0.000000	-0.000000	0.000000	0.000000	-0.000000	-39.561658	520.080010	33.304558	0.995889	0.000000	-0.560509	0.000000	0.000000	0.000000	0.000000	0.075763	0.000000
1.430208	0.000000	0.000000	-0.000000	0.000000	0.000000	-0.000000	-39.222653	518.814625	33.268780	0.995093	0.000000	-0.560602	0.000000	0.000000	0.000000	0.000000	0.075873	0.000000
1.431250	0.000000	0.000000	-0.000000	0.000000	0.000000	-0.000000	-38.884274	517.583449	33.228230	0.994289	0.000000	-0.560693	0.000000	0.000000	0.000000	0.000000	0.077982	0.000000
1.432292	0.000000	0.000000	-0.000000	0.000000	0.000000	-0.000000	-38.545459	516.384979	33.181816	0.993475	0.000000	-0.560783	0.000000	0.000000	0.000000	0.000000	0.081943	0.000000
1.433333	-0.000000	0.000000	-0.000000	0.000000	0.000000	-0.000000	-38.205268	515.217846	33.128674	0.992651	0.000000	-0.560871	0.000000	0.000000	0.000000	0.000000	0.087598	0.000000
1.434375	-0.000000	0.000000	-0.000000	0.000000	0.000000	-0.000000	-37.862920	514.080850	33.068208	0.991818	0.000000	-0.560957	0.000000	0.000000	0.000000	0.000000	0.094783	0.000000
1.435417	-0.000000	0.000000	-0.000000	0.000000	0.000000	-0.000000	-37.517833	512.972983	33.000120	0.990977	0.000000	-0.561040	0.000000	0.000000	0.000000	0.000000	0.103327	0.000000
1.436458	-0.000000	-0.000000	-0.000000	0.000000	-0.000000	0.000000	-37.169648	511.893451	32.924427	0.990127	0.000000	-0.561121	0.000000	0.000000	0.000000	0.000000	0.113053	0.000000
1.437500	-0.000000	-0.000000	0.000000	-0.000000	-0.000000	0.000000	-36.818250	510.841676	32.841466	0.989270	0.000000	-0.561199	0.000000	0.000000	0.000000	0.000000	0.123782	0.000000
1.438542	-0.000000	-0.000000	0.000000	-0.000000	-0.000000	0.000000	-36.463775	509.817300	32.751897	0.988406	0.000000	-0.561273	0.000000	0.000000	0.000000	0.000000	0.135329	0.000000
1.439583	-0.000000	-0.000000	0.000000	-0.000000	-0.000000	0.000000	-36.106611	508.820168	32.656679	0.987537	0.000000	-0.561345	0.000000	0.000000	0.000000	0.000000	0.147511	0.000000
1.440625	-0.000000	-0.000000	0.000000	-0.000000	-0.000000	0.000000	-35.747386	507.850312	32.557050	0.986664	0.000000	-0.561413	0.000000	0.000000	0.000000	0.000000	0.160144	0.000000
1.441667	-0.000000	-0.000000	0.000000	-0.000000	-0.000000	0.000000	-35.386944	506.907927	32.454489	0.985788	0.000000	-0.561478	0.000000	0.000000	0.000000	0.000000	0.173046	0.000000
1.442708	-0.000000	-0.000000	0.000000	-0.000000	-0.000000	0.000000	-35.026313	505.993340	32.350667	0.984911	0.000000	-0.561539	0.000000	0.000000	0.000000	0.000000	0.186035	0.000000
1.443750	0.000000	-0.000000	0.000000	-0.000000	-0.000000	0.000000	-34.666668	505.106979	32.247395	0.984033	0.000000	-0.561596	0.000000	0.000000	0.000000	0.000000	0.198934	0.000000
1.444792	0.000000	-0.000000	0.000000	-0.000000	-0.000000	0.000000	-34.309281	504.249336	32.146564	0.983157	0.000000	-0.561648	0.000000	0.000000	0.000000	0.000000	0.211570	0.000000
1.445833	0.000000	-0.000000	0.000000	-0.000000	-0.000000	0.000000	-33.955468	503.420939	32.050075	0.982282	0.000000	-0.561697	0.000000	0.000000	0.000000	0.000000	0.223775	0.000000
1.446875	0.000000	-0.000000	0.000000	-0.000000	-0.000000	0.000000	-33.606536	502.622319	31.959779	0.981412	0.000000	-0.561740	0.000000	0.000000	0.000000	0.000000	0.235387	0.000000
1.447917	0.000000	0.000000	-0.000000	0.000000	0.000000	-0.000000	-33.263724	501.853986	31.877401	0.980545	0.000000	-0.561779	0.000000	0.000000	0.000000	0.000000	0.246251	0.000000
1.448958	0.000000	0.000000	-0.000000	0.000000	0.000000	-0.000000	-32.928152	501.116405	31.804482	0.979684	0.000000	-0.561813	0.000000	0.000000	0.000000	0.000000	0.256219	0.000000
1.450000	0.000000	0.000000	-0.000000	0.000000	0.000000	-0.000000	-32.600768	500.409988	31.742313	0.978829	0.000000	-0.561841	0.000000	0.000000	0.000000	0.000000	0.265151	0.000000
1.451042	0.000000	0.000000	-0.000000	0.000000	0.000000	-0.000000	-32.282306	499.735077	31.691882	0.977980	0.000000	-0.561864	0.000000	0.000000	0.000000	0.000000	0.272917	0.000000
1.452083	0.000000	0.000000	-0.000000	0.000000	0.000000	-0.000000	-31.973248	499.091950	31.653829	0.977138	0.000000	-0.561882	0.000000	0.000000	0.000000	0.000000	0.279398	0.000000
1.453125	0.000000	0.000000	-0.000000	0.000000	0.000000	-0.000000	-31.673802	498.480822	31.628409	0.976301	0.000000	-0.561894	0.000000	0.000000	0.000000	0.000000	0.284482	0.000000
1.454167	0.000000	0.000000	-0.000000	0.000000	0.000000	-0.000000	-31.383884	497.901856	31.615469	0.975471	0.000000	-0.561901	0.000000	0.000000	0.000000	0.000000	0.288071	0.000000
1.455208	-0.000000	0.000000	-0.000000	0.000000	0.000000	-0.000000	-31.103113	497.355178	31.614435	0.974645	0.000000	-0.561903	0.000000	0.000000	0.000000	0.000000	0.290077	0.000000
1.456250	-0.000000	0.000000	-0.000000	0.000000	0.000000	-0.000000	-30.830825	496.840896	31.624317	0.973825	0.000000	-0.561899	0.000000	0.000000	0.000000	0.000000	0.290425	0.000000
1.457292	-0.000000	0.000000	-0.000000	0.000000	0.000000	-0.000000	-30.566088	496.359121	31.643721	0.973007	0.000000	-0.561890	0.000000	0.000000	0.000000	0.000000	0.289052	0.000000
1.458333	-0.000000	-0.000000	-0.000000	0.000000	-0.000000	0.000000	-30.307736	495.909988	31.670881	0.972192	0.000000	-0.561876	0.000000	0.000000	0.000000	0.000000	0.285910	0.000000
1.459375	-0.000000	-0.000000	0.000000	-0.000000	-0.000000	0.000000	-30.054403	495.493675	31.703701	0.971377	0.000000	-0.561857	0.000000	0.000000	0.000000	0.000000	0.280962	0.000000
1.460417	-0.000000	-0.000000	0.000000	-0.000000	-0.000000	0.000000	-29.804575	495.110425	31.739802	0.970562	0.000000	-0.561834	0.000000	0.000000	0.000000	0.000000	0.274185	0.000000
1.461458	-0.000000	-0.000000	0.000000	-0.000000	-0.000000	0.000000	-29.556640	494.760557	31.776594	0.969744	0.000000	-0.561808	0.000000	0.000000	0.000000	0.000000	0.265572	0.000000
1.462500	-0.000000	-0.000000	0.000000	-0.000000	-0.000000	0.000000	-29.308940	494.444480	31.811339	0.968921	0.000000	-0.561779	0.000000	0.000000	0.000000	0.000000	0.255128	0.000000
1.463542	-0.000000	-0.000000	0.000000	-0.000000	-0.000000	0.000000	-29.059830	494.162695	31.841234	0.968093	0.000000	-0.561746	0.000000	0.000000	0.000000	0.000000	0.242873	0.000000
1.464583	-0.000000	-0.000000	0.000000	-0.000000	-0.000000	0.000000	-28.807724	493.915795	31.863488	0.967256	0.000000	-0.561712	0.000000	0.000000	0.000000	0.000000	0.228839	0.000000
